<svg xmlns="http://www.w3.org/2000/svg" xmlns:xlink="http://www.w3.org/1999/xlink" width="2000" zoomAndPan="magnify" viewBox="0 0 1500 1499.999933" height="2000" preserveAspectRatio="xMidYMid meet" version="1.0"><defs><g/><clipPath id="84c99cd5c8"><path d="M 108.160156 108.160156 L 1391.839844 108.160156 L 1391.839844 1391.839844 L 108.160156 1391.839844 Z M 108.160156 108.160156 " clip-rule="nonzero"/></clipPath><clipPath id="5cfc7521cb"><path d="M 750 108.160156 C 395.523438 108.160156 108.160156 395.523438 108.160156 750 C 108.160156 1104.476562 395.523438 1391.839844 750 1391.839844 C 1104.476562 1391.839844 1391.839844 1104.476562 1391.839844 750 C 1391.839844 395.523438 1104.476562 108.160156 750 108.160156 Z M 750 108.160156 " clip-rule="nonzero"/></clipPath><clipPath id="5b6ebae923"><path d="M 0.160156 0.160156 L 1283.839844 0.160156 L 1283.839844 1283.839844 L 0.160156 1283.839844 Z M 0.160156 0.160156 " clip-rule="nonzero"/></clipPath><clipPath id="22269b9373"><path d="M 642 0.160156 C 287.523438 0.160156 0.160156 287.523438 0.160156 642 C 0.160156 996.476562 287.523438 1283.839844 642 1283.839844 C 996.476562 1283.839844 1283.839844 996.476562 1283.839844 642 C 1283.839844 287.523438 996.476562 0.160156 642 0.160156 Z M 642 0.160156 " clip-rule="nonzero"/></clipPath><clipPath id="aedb90826e"><rect x="0" width="1284" y="0" height="1284"/></clipPath><clipPath id="6771183548"><rect x="0" width="686" y="0" height="529"/></clipPath><clipPath id="0ea8546cef"><rect x="0" width="757" y="0" height="320"/></clipPath><clipPath id="c5fa227f89"><rect x="0" width="372" y="0" height="675"/></clipPath><clipPath id="23d64fe2df"><path d="M 1263.6875 524.457031 L 1306 524.457031 L 1306 560.996094 L 1263.6875 560.996094 Z M 1263.6875 524.457031 " clip-rule="nonzero"/></clipPath><clipPath id="1d99b73127"><path d="M 1284.828125 524.457031 L 1289.820312 538.414062 L 1305.96875 538.414062 L 1292.90625 547.039062 L 1297.894531 560.996094 L 1284.828125 552.371094 L 1271.765625 560.996094 L 1276.753906 547.039062 L 1263.6875 538.414062 L 1279.839844 538.414062 Z M 1284.828125 524.457031 " clip-rule="nonzero"/></clipPath><clipPath id="84d6cf6a27"><path d="M 0.6875 0.457031 L 43 0.457031 L 43 36.996094 L 0.6875 36.996094 Z M 0.6875 0.457031 " clip-rule="nonzero"/></clipPath><clipPath id="25da7dfed5"><path d="M 21.828125 0.457031 L 26.820312 14.414062 L 42.96875 14.414062 L 29.90625 23.039062 L 34.894531 36.996094 L 21.828125 28.371094 L 8.765625 36.996094 L 13.753906 23.039062 L 0.6875 14.414062 L 16.839844 14.414062 Z M 21.828125 0.457031 " clip-rule="nonzero"/></clipPath><clipPath id="adf428778c"><rect x="0" width="43" y="0" height="37"/></clipPath></defs><g clip-path="url(#84c99cd5c8)"><g clip-path="url(#5cfc7521cb)"><g transform="matrix(1, 0, 0, 1, 108, 108)"><g clip-path="url(#aedb90826e)"><g clip-path="url(#5b6ebae923)"><g clip-path="url(#22269b9373)"><path fill="#ec4899" d="M 0.160156 0.160156 L 1283.839844 0.160156 L 1283.839844 1283.839844 L 0.160156 1283.839844 Z M 0.160156 0.160156 " fill-opacity="1" fill-rule="nonzero"/></g></g></g></g></g></g><g transform="matrix(1, 0, 0, 1, 406, 597)"><g clip-path="url(#6771183548)"><g fill="#09090b" fill-opacity="1"><g transform="translate(1.154956, 393.940982)"><g><path d="M 53.296875 27.734375 C 41.609375 24.328125 33.515625 20.921875 29.015625 17.515625 C 24.515625 14.109375 22.265625 9.851562 22.265625 4.75 C 22.265625 0.851562 23.359375 -4.617188 25.546875 -11.671875 C 27.742188 -18.734375 30.96875 -27.070312 35.21875 -36.6875 C 39.476562 -46.300781 44.585938 -56.945312 50.546875 -68.625 C 56.515625 -80.300781 63.269531 -92.832031 70.8125 -106.21875 C 64.488281 -106.457031 58.832031 -106.640625 53.84375 -106.765625 C 48.851562 -106.890625 44.773438 -106.953125 41.609375 -106.953125 C 43.066406 -110.597656 47.203125 -113.757812 54.015625 -116.4375 C 60.835938 -119.113281 69.84375 -121.425781 81.03125 -123.375 C 90.519531 -139.1875 100.675781 -154.269531 111.5 -168.625 C 122.332031 -182.988281 133.222656 -196.191406 144.171875 -208.234375 C 155.128906 -220.285156 166.082031 -230.875 177.03125 -240 C 187.976562 -249.125 198.441406 -256.363281 208.421875 -261.71875 C 208.660156 -263.414062 208.84375 -264.875 208.96875 -266.09375 C 209.09375 -267.3125 209.15625 -268.164062 209.15625 -268.65625 C 212.5625 -268.65625 217.125 -267.800781 222.84375 -266.09375 C 228.5625 -264.394531 234.15625 -262.328125 239.625 -259.890625 C 245.101562 -257.453125 249.972656 -254.957031 254.234375 -252.40625 C 258.492188 -249.851562 260.863281 -247.722656 261.34375 -246.015625 C 253.320312 -231.898438 245.414062 -210.789062 237.625 -182.6875 C 229.832031 -154.582031 223.382812 -120.941406 218.28125 -81.765625 C 217.0625 -72.023438 216.023438 -60.953125 215.171875 -48.546875 C 214.328125 -36.140625 213.90625 -22.269531 213.90625 -6.9375 C 213.90625 -1.582031 213.90625 3.890625 213.90625 9.484375 C 213.90625 15.085938 214.144531 20.929688 214.625 27.015625 C 214.144531 27.253906 213.660156 27.375 213.171875 27.375 C 212.679688 27.375 211.707031 27.375 210.25 27.375 C 206.84375 27.375 202.890625 26.828125 198.390625 25.734375 C 193.890625 24.640625 189.507812 23.300781 185.25 21.71875 C 180.988281 20.132812 177.335938 18.367188 174.296875 16.421875 C 171.253906 14.472656 169.367188 12.769531 168.640625 11.3125 C 168.390625 8.144531 168.265625 5.039062 168.265625 2 C 168.265625 -1.039062 168.265625 -4.265625 168.265625 -7.671875 C 168.265625 -22.753906 168.8125 -38.082031 169.90625 -53.65625 C 171.007812 -69.226562 172.898438 -85.289062 175.578125 -101.84375 C 172.171875 -102.082031 167.664062 -102.382812 162.0625 -102.75 C 156.46875 -103.113281 150.203125 -103.414062 143.265625 -103.65625 C 136.328125 -103.90625 128.90625 -104.210938 121 -104.578125 C 113.09375 -104.941406 105.367188 -105.242188 97.828125 -105.484375 C 91.984375 -94.535156 86.503906 -83.644531 81.390625 -72.8125 C 76.285156 -61.988281 71.910156 -51.101562 68.265625 -40.15625 C 64.117188 -28.46875 60.769531 -16.785156 58.21875 -5.109375 C 55.664062 6.566406 54.023438 17.515625 53.296875 27.734375 Z M 194.1875 -191.640625 C 195.15625 -195.046875 196.304688 -199.726562 197.640625 -205.6875 C 198.984375 -211.644531 200.265625 -217.910156 201.484375 -224.484375 C 195.398438 -222.296875 188.644531 -218.28125 181.21875 -212.4375 C 173.800781 -206.59375 166.140625 -199.351562 158.234375 -190.71875 C 150.328125 -182.082031 142.296875 -172.347656 134.140625 -161.515625 C 125.992188 -150.691406 118.144531 -139.195312 110.59375 -127.03125 C 131.039062 -128.726562 154.28125 -129.820312 180.3125 -130.3125 C 182.257812 -140.53125 184.390625 -150.6875 186.703125 -160.78125 C 189.015625 -170.882812 191.507812 -181.171875 194.1875 -191.640625 Z M 194.1875 -191.640625 "/></g></g></g><g fill="#09090b" fill-opacity="1"><g transform="translate(235.497119, 393.940982)"><g><path d="M 173.75 -269.75 C 183 -269.75 192.609375 -268.046875 202.578125 -264.640625 C 212.554688 -261.234375 221.316406 -256.851562 228.859375 -251.5 C 226.429688 -239.082031 224.179688 -227.882812 222.109375 -217.90625 C 220.046875 -207.9375 218.160156 -198.875 216.453125 -190.71875 C 214.753906 -182.570312 213.113281 -175.148438 211.53125 -168.453125 C 209.945312 -161.765625 208.425781 -155.5 206.96875 -149.65625 C 201.125 -127.757812 195.097656 -107.988281 188.890625 -90.34375 C 182.691406 -72.695312 176.125 -56.816406 169.1875 -42.703125 C 162.25 -28.585938 154.945312 -16.054688 147.28125 -5.109375 C 139.613281 5.835938 131.398438 15.445312 122.640625 23.71875 C 114.128906 31.75 105.613281 38.320312 97.09375 43.4375 C 88.570312 48.550781 80.664062 51.835938 73.375 53.296875 C 63.632812 53.296875 54.628906 52.195312 46.359375 50 C 38.085938 47.8125 30.96875 44.832031 25 41.0625 C 19.039062 37.289062 14.414062 32.785156 11.125 27.546875 C 7.84375 22.316406 6.203125 16.539062 6.203125 10.21875 C 6.203125 3.40625 7.90625 -5.171875 11.3125 -15.515625 C 14.71875 -25.859375 19.953125 -38.085938 27.015625 -52.203125 C 29.929688 -51.953125 33.335938 -51.21875 37.234375 -50 C 41.128906 -48.789062 45.019531 -47.332031 48.90625 -45.625 C 52.800781 -43.925781 56.332031 -42.039062 59.5 -39.96875 C 62.664062 -37.894531 64.976562 -35.890625 66.4375 -33.953125 C 58.644531 -25.921875 52.316406 -17.097656 47.453125 -7.484375 C 42.585938 2.128906 40.15625 10.460938 40.15625 17.515625 C 40.15625 21.648438 40.941406 25.359375 42.515625 28.640625 C 44.097656 31.929688 46.835938 34.914062 50.734375 37.59375 C 65.578125 32 80.054688 21.597656 94.171875 6.390625 C 108.285156 -8.816406 120.816406 -27.738281 131.765625 -50.375 C 138.335938 -63.757812 144.300781 -79.085938 149.65625 -96.359375 C 155.007812 -113.640625 159.570312 -130.976562 163.34375 -148.375 C 167.113281 -165.78125 170.03125 -182.453125 172.09375 -198.390625 C 174.164062 -214.328125 175.203125 -227.769531 175.203125 -238.71875 C 175.203125 -240.425781 175.140625 -242.800781 175.015625 -245.84375 C 174.898438 -248.882812 174.78125 -252.046875 174.65625 -255.328125 C 174.539062 -258.609375 174.359375 -261.585938 174.109375 -264.265625 C 173.867188 -266.941406 173.75 -268.769531 173.75 -269.75 Z M 173.75 -269.75 "/></g></g></g><g fill="#09090b" fill-opacity="1"><g transform="translate(422.386757, 393.940982)"><g><path d="M 53.296875 27.734375 C 41.609375 24.328125 33.515625 20.921875 29.015625 17.515625 C 24.515625 14.109375 22.265625 9.851562 22.265625 4.75 C 22.265625 0.851562 23.359375 -4.617188 25.546875 -11.671875 C 27.742188 -18.734375 30.96875 -27.070312 35.21875 -36.6875 C 39.476562 -46.300781 44.585938 -56.945312 50.546875 -68.625 C 56.515625 -80.300781 63.269531 -92.832031 70.8125 -106.21875 C 64.488281 -106.457031 58.832031 -106.640625 53.84375 -106.765625 C 48.851562 -106.890625 44.773438 -106.953125 41.609375 -106.953125 C 43.066406 -110.597656 47.203125 -113.757812 54.015625 -116.4375 C 60.835938 -119.113281 69.84375 -121.425781 81.03125 -123.375 C 90.519531 -139.1875 100.675781 -154.269531 111.5 -168.625 C 122.332031 -182.988281 133.222656 -196.191406 144.171875 -208.234375 C 155.128906 -220.285156 166.082031 -230.875 177.03125 -240 C 187.976562 -249.125 198.441406 -256.363281 208.421875 -261.71875 C 208.660156 -263.414062 208.84375 -264.875 208.96875 -266.09375 C 209.09375 -267.3125 209.15625 -268.164062 209.15625 -268.65625 C 212.5625 -268.65625 217.125 -267.800781 222.84375 -266.09375 C 228.5625 -264.394531 234.15625 -262.328125 239.625 -259.890625 C 245.101562 -257.453125 249.972656 -254.957031 254.234375 -252.40625 C 258.492188 -249.851562 260.863281 -247.722656 261.34375 -246.015625 C 253.320312 -231.898438 245.414062 -210.789062 237.625 -182.6875 C 229.832031 -154.582031 223.382812 -120.941406 218.28125 -81.765625 C 217.0625 -72.023438 216.023438 -60.953125 215.171875 -48.546875 C 214.328125 -36.140625 213.90625 -22.269531 213.90625 -6.9375 C 213.90625 -1.582031 213.90625 3.890625 213.90625 9.484375 C 213.90625 15.085938 214.144531 20.929688 214.625 27.015625 C 214.144531 27.253906 213.660156 27.375 213.171875 27.375 C 212.679688 27.375 211.707031 27.375 210.25 27.375 C 206.84375 27.375 202.890625 26.828125 198.390625 25.734375 C 193.890625 24.640625 189.507812 23.300781 185.25 21.71875 C 180.988281 20.132812 177.335938 18.367188 174.296875 16.421875 C 171.253906 14.472656 169.367188 12.769531 168.640625 11.3125 C 168.390625 8.144531 168.265625 5.039062 168.265625 2 C 168.265625 -1.039062 168.265625 -4.265625 168.265625 -7.671875 C 168.265625 -22.753906 168.8125 -38.082031 169.90625 -53.65625 C 171.007812 -69.226562 172.898438 -85.289062 175.578125 -101.84375 C 172.171875 -102.082031 167.664062 -102.382812 162.0625 -102.75 C 156.46875 -103.113281 150.203125 -103.414062 143.265625 -103.65625 C 136.328125 -103.90625 128.90625 -104.210938 121 -104.578125 C 113.09375 -104.941406 105.367188 -105.242188 97.828125 -105.484375 C 91.984375 -94.535156 86.503906 -83.644531 81.390625 -72.8125 C 76.285156 -61.988281 71.910156 -51.101562 68.265625 -40.15625 C 64.117188 -28.46875 60.769531 -16.785156 58.21875 -5.109375 C 55.664062 6.566406 54.023438 17.515625 53.296875 27.734375 Z M 194.1875 -191.640625 C 195.15625 -195.046875 196.304688 -199.726562 197.640625 -205.6875 C 198.984375 -211.644531 200.265625 -217.910156 201.484375 -224.484375 C 195.398438 -222.296875 188.644531 -218.28125 181.21875 -212.4375 C 173.800781 -206.59375 166.140625 -199.351562 158.234375 -190.71875 C 150.328125 -182.082031 142.296875 -172.347656 134.140625 -161.515625 C 125.992188 -150.691406 118.144531 -139.195312 110.59375 -127.03125 C 131.039062 -128.726562 154.28125 -129.820312 180.3125 -130.3125 C 182.257812 -140.53125 184.390625 -150.6875 186.703125 -160.78125 C 189.015625 -170.882812 191.507812 -181.171875 194.1875 -191.640625 Z M 194.1875 -191.640625 "/></g></g></g></g></g><g transform="matrix(1, 0, 0, 1, 516, 408)"><g clip-path="url(#0ea8546cef)"><g fill="#fcffff" fill-opacity="1"><g transform="translate(0.859936, 237.435302)"><g><path d="M 21.46875 -14.671875 C 21.46875 -15.984375 21.578125 -17.625 21.796875 -19.59375 C 22.015625 -21.570312 22.414062 -24.203125 23 -27.484375 C 23.582031 -30.773438 24.347656 -34.753906 25.296875 -39.421875 C 26.242188 -44.097656 27.445312 -49.722656 28.90625 -56.296875 C 29.195312 -57.753906 29.851562 -60.085938 30.875 -63.296875 C 31.90625 -66.515625 33.257812 -69.910156 34.9375 -73.484375 C 36.613281 -77.054688 38.65625 -80.519531 41.0625 -83.875 C 43.476562 -87.238281 46.363281 -89.726562 49.71875 -91.34375 C 52.195312 -90.75 55.476562 -89.25 59.5625 -86.84375 C 63.65625 -84.4375 67.164062 -81.113281 70.09375 -76.875 C 66.726562 -73.082031 63.914062 -69.285156 61.65625 -65.484375 C 59.394531 -61.691406 57.347656 -57.75 55.515625 -53.65625 C 53.691406 -49.570312 52.015625 -45.335938 50.484375 -40.953125 C 48.953125 -36.578125 47.238281 -31.976562 45.34375 -27.15625 C 43.738281 -23.070312 42.273438 -18.875 40.953125 -14.5625 C 39.640625 -10.257812 38.910156 -6.5 38.765625 -3.28125 C 38.765625 -0.65625 38.726562 1.203125 38.65625 2.296875 C 38.582031 3.390625 38.179688 3.9375 37.453125 3.9375 C 36.867188 3.9375 35.703125 3.570312 33.953125 2.84375 C 32.203125 2.113281 30.410156 0.984375 28.578125 -0.546875 C 26.753906 -2.078125 25.113281 -4.007812 23.65625 -6.34375 C 22.195312 -8.6875 21.46875 -11.460938 21.46875 -14.671875 Z M 63.296875 -109.734375 C 63.296875 -110.609375 63.515625 -111.921875 63.953125 -113.671875 C 63.222656 -114.398438 62.601562 -115.492188 62.09375 -116.953125 C 61.582031 -118.421875 61.328125 -119.738281 61.328125 -120.90625 C 61.328125 -122.21875 61.507812 -124.003906 61.875 -126.265625 C 62.238281 -128.535156 62.710938 -130.984375 63.296875 -133.609375 C 63.878906 -136.234375 64.609375 -138.96875 65.484375 -141.8125 C 66.359375 -144.664062 67.238281 -147.257812 68.125 -149.59375 C 69.875 -149.59375 72.023438 -149.117188 74.578125 -148.171875 C 77.128906 -147.222656 79.71875 -145.984375 82.34375 -144.453125 C 84.976562 -142.921875 87.390625 -141.238281 89.578125 -139.40625 C 91.773438 -137.582031 93.457031 -135.867188 94.625 -134.265625 C 93.019531 -132.660156 90.898438 -130.429688 88.265625 -127.578125 C 85.640625 -124.734375 83.082031 -121.738281 80.59375 -118.59375 C 78.113281 -115.457031 75.851562 -112.503906 73.8125 -109.734375 C 71.769531 -106.960938 70.457031 -104.992188 69.875 -103.828125 C 68.125 -104.117188 66.585938 -104.882812 65.265625 -106.125 C 63.953125 -107.363281 63.296875 -108.566406 63.296875 -109.734375 Z M 63.296875 -109.734375 "/></g></g></g><g fill="#fcffff" fill-opacity="1"><g transform="translate(52.550864, 237.435302)"><g><path d="M 56.734375 -106.234375 C 60.523438 -105.066406 64.097656 -102.472656 67.453125 -98.453125 C 70.816406 -94.441406 73.300781 -90.023438 74.90625 -85.203125 C 73.300781 -81.265625 70.816406 -76.519531 67.453125 -70.96875 C 64.097656 -65.414062 60.738281 -59.753906 57.375 -53.984375 C 54.019531 -48.222656 50.992188 -42.75 48.296875 -37.5625 C 45.597656 -32.375 44.03125 -28.101562 43.59375 -24.75 C 45.925781 -27.226562 48.515625 -30.109375 51.359375 -33.390625 C 54.210938 -36.679688 56.988281 -39.96875 59.6875 -43.25 C 62.382812 -46.539062 64.898438 -49.535156 67.234375 -52.234375 C 69.578125 -54.941406 71.40625 -56.953125 72.71875 -58.265625 C 75.488281 -61.179688 78.769531 -64.570312 82.5625 -68.4375 C 86.363281 -72.3125 90.34375 -75.960938 94.5 -79.390625 C 98.664062 -82.828125 102.863281 -85.75 107.09375 -88.15625 C 111.332031 -90.570312 115.207031 -91.78125 118.71875 -91.78125 C 122.507812 -91.78125 125.679688 -90.5 128.234375 -87.9375 C 130.796875 -85.382812 132.804688 -82.722656 134.265625 -79.953125 C 134.265625 -79.660156 133.71875 -79.253906 132.625 -78.734375 C 131.53125 -78.222656 129.960938 -76.800781 127.921875 -74.46875 C 125.867188 -71.84375 123.566406 -68.226562 121.015625 -63.625 C 118.460938 -59.03125 115.976562 -54.066406 113.5625 -48.734375 C 111.15625 -43.398438 109.148438 -37.957031 107.546875 -32.40625 C 105.941406 -26.863281 105.140625 -21.828125 105.140625 -17.296875 C 105.140625 -13.648438 105.613281 -11.316406 106.5625 -10.296875 C 107.507812 -9.273438 108.859375 -8.765625 110.609375 -8.765625 C 112.210938 -8.765625 113.890625 -9.128906 115.640625 -9.859375 C 117.398438 -10.585938 118.789062 -10.953125 119.8125 -10.953125 C 120.394531 -10.660156 120.867188 -10.039062 121.234375 -9.09375 C 121.597656 -8.144531 121.78125 -7.304688 121.78125 -6.578125 C 120.613281 -5.546875 119.222656 -4.519531 117.609375 -3.5 C 116.003906 -2.476562 114.328125 -1.53125 112.578125 -0.65625 C 110.828125 0.21875 109.113281 0.945312 107.4375 1.53125 C 105.757812 2.113281 104.257812 2.40625 102.9375 2.40625 C 98.707031 2.40625 95.238281 1.785156 92.53125 0.546875 C 89.832031 -0.691406 87.71875 -2.332031 86.1875 -4.375 C 84.65625 -6.425781 83.597656 -8.875 83.015625 -11.71875 C 82.429688 -14.5625 82.140625 -17.59375 82.140625 -20.8125 C 82.140625 -22.5625 82.285156 -24.53125 82.578125 -26.71875 C 82.867188 -28.90625 83.453125 -31.492188 84.328125 -34.484375 C 85.203125 -37.484375 86.441406 -41.0625 88.046875 -45.21875 C 89.648438 -49.382812 91.695312 -54.390625 94.1875 -60.234375 C 93.894531 -60.234375 91.921875 -59.207031 88.265625 -57.15625 C 84.617188 -55.113281 80.675781 -51.976562 76.4375 -47.75 C 69.570312 -41.175781 63.398438 -34.675781 57.921875 -28.25 C 52.453125 -21.832031 46.867188 -14.679688 41.171875 -6.796875 C 37.960938 -2.265625 35.148438 1.566406 32.734375 4.703125 C 30.328125 7.847656 28.25 9.929688 26.5 10.953125 C 23.4375 9.203125 21.171875 6.753906 19.703125 3.609375 C 18.242188 0.472656 17.148438 -2.773438 16.421875 -6.140625 C 16.421875 -8.910156 16.820312 -12.410156 17.625 -16.640625 C 18.4375 -20.878906 19.535156 -25.585938 20.921875 -30.765625 C 22.304688 -35.953125 24.019531 -41.394531 26.0625 -47.09375 C 28.101562 -52.789062 30.367188 -58.484375 32.859375 -64.171875 C 38.398438 -77.023438 43.472656 -87.101562 48.078125 -94.40625 C 52.679688 -101.707031 55.566406 -105.648438 56.734375 -106.234375 Z M 56.734375 -106.234375 "/></g></g></g><g fill="#fcffff" fill-opacity="1"><g transform="translate(170.826726, 237.435302)"><g><path d="M 34.171875 -83.890625 C 33.441406 -84.765625 32.785156 -86.625 32.203125 -89.46875 C 31.617188 -92.320312 31.328125 -94.769531 31.328125 -96.8125 C 35.117188 -96.519531 38.765625 -96.265625 42.265625 -96.046875 C 45.773438 -95.828125 48.988281 -95.644531 51.90625 -95.5 C 54.101562 -99.875 56.476562 -104.210938 59.03125 -108.515625 C 61.582031 -112.828125 64.0625 -116.769531 66.46875 -120.34375 C 68.882812 -123.925781 71.148438 -126.957031 73.265625 -129.4375 C 75.378906 -131.925781 77.019531 -133.535156 78.1875 -134.265625 C 79.65625 -134.265625 81.519531 -134.007812 83.78125 -133.5 C 86.039062 -132.988281 88.335938 -132.332031 90.671875 -131.53125 C 93.015625 -130.726562 95.132812 -129.882812 97.03125 -129 C 98.925781 -128.125 100.238281 -127.25 100.96875 -126.375 C 96.59375 -120.832031 92.832031 -115.6875 89.6875 -110.9375 C 86.550781 -106.195312 83.160156 -100.757812 79.515625 -94.625 C 82.429688 -94.625 85.382812 -94.695312 88.375 -94.84375 C 91.375 -94.988281 94.40625 -95.207031 97.46875 -95.5 C 98.195312 -94.769531 98.78125 -93.851562 99.21875 -92.75 C 99.65625 -91.65625 99.875 -90.523438 99.875 -89.359375 C 92.71875 -86.734375 84.03125 -85.273438 73.8125 -84.984375 C 70.164062 -77.972656 66.914062 -71 64.0625 -64.0625 C 61.21875 -57.125 58.804688 -50.441406 56.828125 -44.015625 C 54.859375 -37.597656 53.328125 -31.539062 52.234375 -25.84375 C 51.140625 -20.144531 50.59375 -15.035156 50.59375 -10.515625 C 50.59375 -4.085938 53.003906 -0.507812 57.828125 0.21875 C 62.203125 -0.363281 66.359375 -1.457031 70.296875 -3.0625 C 74.242188 -4.664062 77.753906 -6.710938 80.828125 -9.203125 C 81.703125 -7.890625 82.210938 -6.789062 82.359375 -5.90625 C 81.484375 -4.59375 79.984375 -3.0625 77.859375 -1.3125 C 75.742188 0.4375 73.445312 2.148438 70.96875 3.828125 C 68.488281 5.515625 66.078125 6.941406 63.734375 8.109375 C 61.398438 9.273438 59.648438 9.929688 58.484375 10.078125 C 54.828125 9.929688 51.171875 9.125 47.515625 7.65625 C 43.867188 6.195312 40.550781 4.375 37.5625 2.1875 C 34.570312 0 32.125 -2.441406 30.21875 -5.140625 C 28.320312 -7.847656 27.375 -10.515625 27.375 -13.140625 C 27.375 -16.648438 27.847656 -21.066406 28.796875 -26.390625 C 29.742188 -31.722656 31.09375 -37.523438 32.84375 -43.796875 C 34.601562 -50.078125 36.648438 -56.648438 38.984375 -63.515625 C 41.316406 -70.378906 43.875 -77.171875 46.65625 -83.890625 Z M 34.171875 -83.890625 "/></g></g></g><g fill="#fcffff" fill-opacity="1"><g transform="translate(247.925116, 237.435302)"><g><path d="M 96.8125 -88.484375 C 98.269531 -88.484375 99.984375 -88.226562 101.953125 -87.71875 C 103.929688 -87.207031 105.722656 -86.550781 107.328125 -85.75 C 108.929688 -84.945312 110.28125 -84.109375 111.375 -83.234375 C 112.46875 -82.359375 113.015625 -81.554688 113.015625 -80.828125 C 110.097656 -74.691406 107.394531 -68.519531 104.90625 -62.3125 C 102.425781 -56.101562 100.3125 -50.148438 98.5625 -44.453125 C 96.8125 -38.765625 95.460938 -33.4375 94.515625 -28.46875 C 93.566406 -23.507812 93.09375 -19.203125 93.09375 -15.546875 C 93.09375 -11.460938 93.53125 -8.066406 94.40625 -5.359375 C 95.28125 -2.660156 96.738281 -0.726562 98.78125 0.4375 C 97.03125 1.601562 94.765625 2.550781 91.984375 3.28125 C 89.210938 4.007812 86.734375 4.375 84.546875 4.375 C 76.660156 4.375 72.71875 -1.023438 72.71875 -11.828125 C 72.71875 -20.148438 75.492188 -31.539062 81.046875 -46 C 78.117188 -39.28125 74.753906 -32.960938 70.953125 -27.046875 C 67.160156 -21.128906 63.289062 -15.90625 59.34375 -11.375 C 55.40625 -6.851562 51.425781 -3.171875 47.40625 -0.328125 C 43.394531 2.515625 39.710938 4.226562 36.359375 4.8125 C 30.953125 4.519531 26.566406 1.929688 23.203125 -2.953125 C 19.847656 -7.847656 18.171875 -14.09375 18.171875 -21.6875 C 18.171875 -29.863281 19.921875 -38.476562 23.421875 -47.53125 C 26.929688 -56.582031 31.425781 -64.976562 36.90625 -72.71875 C 42.382812 -80.457031 48.332031 -86.914062 54.75 -92.09375 C 61.175781 -97.28125 67.382812 -100.019531 73.375 -100.3125 C 74.832031 -99.875 76.472656 -99 78.296875 -97.6875 C 80.128906 -96.375 81.882812 -94.835938 83.5625 -93.078125 C 85.238281 -91.328125 86.660156 -89.539062 87.828125 -87.71875 C 88.992188 -85.894531 89.648438 -84.328125 89.796875 -83.015625 C 83.960938 -82.140625 77.941406 -79.289062 71.734375 -74.46875 C 65.523438 -69.65625 59.898438 -63.851562 54.859375 -57.0625 C 49.828125 -50.269531 45.703125 -43.003906 42.484375 -35.265625 C 39.273438 -27.523438 37.671875 -20.296875 37.671875 -13.578125 C 37.671875 -10.804688 38.691406 -9.054688 40.734375 -8.328125 C 44.972656 -9.203125 49.863281 -12.8125 55.40625 -19.15625 C 60.957031 -25.507812 67.675781 -35.332031 75.5625 -48.625 C 77.019531 -51.25 78.660156 -54.164062 80.484375 -57.375 C 82.316406 -60.59375 84.179688 -63.953125 86.078125 -67.453125 C 87.972656 -70.960938 89.832031 -74.503906 91.65625 -78.078125 C 93.488281 -81.660156 95.207031 -85.128906 96.8125 -88.484375 Z M 96.8125 -88.484375 "/></g></g></g><g fill="#fcffff" fill-opacity="1"><g transform="translate(350.868957, 237.435302)"><g><path d="M 56.734375 -106.234375 C 60.523438 -105.066406 64.097656 -102.472656 67.453125 -98.453125 C 70.816406 -94.441406 73.300781 -90.023438 74.90625 -85.203125 C 73.300781 -81.265625 70.816406 -76.519531 67.453125 -70.96875 C 64.097656 -65.414062 60.738281 -59.753906 57.375 -53.984375 C 54.019531 -48.222656 50.992188 -42.75 48.296875 -37.5625 C 45.597656 -32.375 44.03125 -28.101562 43.59375 -24.75 C 45.925781 -27.226562 48.515625 -30.109375 51.359375 -33.390625 C 54.210938 -36.679688 56.988281 -39.96875 59.6875 -43.25 C 62.382812 -46.539062 64.898438 -49.535156 67.234375 -52.234375 C 69.578125 -54.941406 71.40625 -56.953125 72.71875 -58.265625 C 75.488281 -61.179688 78.769531 -64.570312 82.5625 -68.4375 C 86.363281 -72.3125 90.34375 -75.960938 94.5 -79.390625 C 98.664062 -82.828125 102.863281 -85.75 107.09375 -88.15625 C 111.332031 -90.570312 115.207031 -91.78125 118.71875 -91.78125 C 122.507812 -91.78125 125.679688 -90.5 128.234375 -87.9375 C 130.796875 -85.382812 132.804688 -82.722656 134.265625 -79.953125 C 134.265625 -79.660156 133.71875 -79.253906 132.625 -78.734375 C 131.53125 -78.222656 129.960938 -76.800781 127.921875 -74.46875 C 125.867188 -71.84375 123.566406 -68.226562 121.015625 -63.625 C 118.460938 -59.03125 115.976562 -54.066406 113.5625 -48.734375 C 111.15625 -43.398438 109.148438 -37.957031 107.546875 -32.40625 C 105.941406 -26.863281 105.140625 -21.828125 105.140625 -17.296875 C 105.140625 -13.648438 105.613281 -11.316406 106.5625 -10.296875 C 107.507812 -9.273438 108.859375 -8.765625 110.609375 -8.765625 C 112.210938 -8.765625 113.890625 -9.128906 115.640625 -9.859375 C 117.398438 -10.585938 118.789062 -10.953125 119.8125 -10.953125 C 120.394531 -10.660156 120.867188 -10.039062 121.234375 -9.09375 C 121.597656 -8.144531 121.78125 -7.304688 121.78125 -6.578125 C 120.613281 -5.546875 119.222656 -4.519531 117.609375 -3.5 C 116.003906 -2.476562 114.328125 -1.53125 112.578125 -0.65625 C 110.828125 0.21875 109.113281 0.945312 107.4375 1.53125 C 105.757812 2.113281 104.257812 2.40625 102.9375 2.40625 C 98.707031 2.40625 95.238281 1.785156 92.53125 0.546875 C 89.832031 -0.691406 87.71875 -2.332031 86.1875 -4.375 C 84.65625 -6.425781 83.597656 -8.875 83.015625 -11.71875 C 82.429688 -14.5625 82.140625 -17.59375 82.140625 -20.8125 C 82.140625 -22.5625 82.285156 -24.53125 82.578125 -26.71875 C 82.867188 -28.90625 83.453125 -31.492188 84.328125 -34.484375 C 85.203125 -37.484375 86.441406 -41.0625 88.046875 -45.21875 C 89.648438 -49.382812 91.695312 -54.390625 94.1875 -60.234375 C 93.894531 -60.234375 91.921875 -59.207031 88.265625 -57.15625 C 84.617188 -55.113281 80.675781 -51.976562 76.4375 -47.75 C 69.570312 -41.175781 63.398438 -34.675781 57.921875 -28.25 C 52.453125 -21.832031 46.867188 -14.679688 41.171875 -6.796875 C 37.960938 -2.265625 35.148438 1.566406 32.734375 4.703125 C 30.328125 7.847656 28.25 9.929688 26.5 10.953125 C 23.4375 9.203125 21.171875 6.753906 19.703125 3.609375 C 18.242188 0.472656 17.148438 -2.773438 16.421875 -6.140625 C 16.421875 -8.910156 16.820312 -12.410156 17.625 -16.640625 C 18.4375 -20.878906 19.535156 -25.585938 20.921875 -30.765625 C 22.304688 -35.953125 24.019531 -41.394531 26.0625 -47.09375 C 28.101562 -52.789062 30.367188 -58.484375 32.859375 -64.171875 C 38.398438 -77.023438 43.472656 -87.101562 48.078125 -94.40625 C 52.679688 -101.707031 55.566406 -105.648438 56.734375 -106.234375 Z M 56.734375 -106.234375 "/></g></g></g><g fill="#fcffff" fill-opacity="1"><g transform="translate(469.144831, 237.435302)"><g><path d="M -23 65.265625 C -23 64.390625 -22.707031 63.585938 -22.125 62.859375 C -21.539062 62.128906 -20.882812 61.398438 -20.15625 60.671875 C -18.394531 62.273438 -16.894531 63.515625 -15.65625 64.390625 C -14.414062 65.265625 -13.25 65.992188 -12.15625 66.578125 C -11.0625 67.171875 -9.929688 67.539062 -8.765625 67.6875 C -7.597656 67.832031 -6.207031 67.90625 -4.59375 67.90625 C 3 67.90625 10.222656 65.894531 17.078125 61.875 C 23.941406 57.863281 30.40625 52.0625 36.46875 44.46875 C 42.53125 36.875 48.039062 27.597656 53 16.640625 C 57.96875 5.691406 62.347656 -6.71875 66.140625 -20.59375 C 64.390625 -18.832031 62.238281 -16.894531 59.6875 -14.78125 C 57.132812 -12.664062 54.46875 -10.65625 51.6875 -8.75 C 48.914062 -6.851562 46.175781 -5.101562 43.46875 -3.5 C 40.769531 -1.894531 38.472656 -0.726562 36.578125 0 C 34.097656 -0.4375 31.796875 -1.492188 29.671875 -3.171875 C 27.554688 -4.847656 25.695312 -6.925781 24.09375 -9.40625 C 22.488281 -11.894531 21.25 -14.707031 20.375 -17.84375 C 19.5 -20.988281 19.0625 -24.3125 19.0625 -27.8125 C 19.0625 -33.507812 20.117188 -39.347656 22.234375 -45.328125 C 24.347656 -51.316406 27.15625 -57.195312 30.65625 -62.96875 C 34.164062 -68.738281 38.289062 -74.175781 43.03125 -79.28125 C 47.78125 -84.394531 52.816406 -88.847656 58.140625 -92.640625 C 63.472656 -96.441406 68.878906 -99.472656 74.359375 -101.734375 C 79.835938 -104.003906 85.203125 -105.140625 90.453125 -105.140625 C 95.566406 -105.140625 99.398438 -104.078125 101.953125 -101.953125 C 104.515625 -99.835938 106.378906 -96.222656 107.546875 -91.109375 C 105.941406 -91.992188 103.894531 -92.4375 101.40625 -92.4375 C 97.90625 -92.4375 93.851562 -91.046875 89.25 -88.265625 C 84.65625 -85.492188 79.984375 -81.878906 75.234375 -77.421875 C 70.492188 -72.972656 65.785156 -67.863281 61.109375 -62.09375 C 56.429688 -56.320312 52.304688 -50.441406 48.734375 -44.453125 C 45.160156 -38.472656 42.238281 -32.632812 39.96875 -26.9375 C 37.707031 -21.25 36.578125 -16.140625 36.578125 -11.609375 C 36.578125 -10.585938 36.648438 -9.96875 36.796875 -9.75 C 36.941406 -9.53125 37.160156 -9.421875 37.453125 -9.421875 C 38.765625 -9.421875 40.550781 -10.148438 42.8125 -11.609375 C 45.082031 -13.066406 47.640625 -14.925781 50.484375 -17.1875 C 53.335938 -19.457031 56.296875 -22.085938 59.359375 -25.078125 C 62.421875 -28.066406 65.34375 -31.097656 68.125 -34.171875 C 74.394531 -41.179688 80.125 -49.03125 85.3125 -57.71875 C 90.5 -66.40625 94.625 -74.835938 97.6875 -83.015625 C 101.632812 -82.722656 105.140625 -82.066406 108.203125 -81.046875 C 111.265625 -80.023438 113.378906 -78.925781 114.546875 -77.75 C 109.585938 -66.363281 105.609375 -56.800781 102.609375 -49.0625 C 99.617188 -41.320312 97.03125 -34.457031 94.84375 -28.46875 C 90.894531 -17.957031 87.203125 -8.359375 83.765625 0.328125 C 80.335938 9.015625 76.835938 17.046875 73.265625 24.421875 C 69.691406 31.796875 65.820312 38.65625 61.65625 45 C 57.5 51.351562 52.789062 57.453125 47.53125 63.296875 C 45.050781 66.078125 42.238281 68.523438 39.09375 70.640625 C 35.957031 72.753906 32.742188 74.539062 29.453125 76 C 26.171875 77.457031 22.957031 78.550781 19.8125 79.28125 C 16.675781 80.019531 13.796875 80.390625 11.171875 80.390625 C 7.660156 80.390625 4.082031 79.984375 0.4375 79.171875 C -3.207031 78.367188 -6.597656 77.273438 -9.734375 75.890625 C -12.878906 74.503906 -15.617188 72.898438 -17.953125 71.078125 C -20.296875 69.253906 -21.976562 67.316406 -23 65.265625 Z M -23 65.265625 "/></g></g></g><g fill="#fcffff" fill-opacity="1"><g transform="translate(567.708085, 237.435302)"><g><path d="M 21.46875 -14.671875 C 21.46875 -15.984375 21.578125 -17.625 21.796875 -19.59375 C 22.015625 -21.570312 22.414062 -24.203125 23 -27.484375 C 23.582031 -30.773438 24.347656 -34.753906 25.296875 -39.421875 C 26.242188 -44.097656 27.445312 -49.722656 28.90625 -56.296875 C 29.195312 -57.753906 29.851562 -60.085938 30.875 -63.296875 C 31.90625 -66.515625 33.257812 -69.910156 34.9375 -73.484375 C 36.613281 -77.054688 38.65625 -80.519531 41.0625 -83.875 C 43.476562 -87.238281 46.363281 -89.726562 49.71875 -91.34375 C 52.195312 -90.75 55.476562 -89.25 59.5625 -86.84375 C 63.65625 -84.4375 67.164062 -81.113281 70.09375 -76.875 C 66.726562 -73.082031 63.914062 -69.285156 61.65625 -65.484375 C 59.394531 -61.691406 57.347656 -57.75 55.515625 -53.65625 C 53.691406 -49.570312 52.015625 -45.335938 50.484375 -40.953125 C 48.953125 -36.578125 47.238281 -31.976562 45.34375 -27.15625 C 43.738281 -23.070312 42.273438 -18.875 40.953125 -14.5625 C 39.640625 -10.257812 38.910156 -6.5 38.765625 -3.28125 C 38.765625 -0.65625 38.726562 1.203125 38.65625 2.296875 C 38.582031 3.390625 38.179688 3.9375 37.453125 3.9375 C 36.867188 3.9375 35.703125 3.570312 33.953125 2.84375 C 32.203125 2.113281 30.410156 0.984375 28.578125 -0.546875 C 26.753906 -2.078125 25.113281 -4.007812 23.65625 -6.34375 C 22.195312 -8.6875 21.46875 -11.460938 21.46875 -14.671875 Z M 63.296875 -109.734375 C 63.296875 -110.609375 63.515625 -111.921875 63.953125 -113.671875 C 63.222656 -114.398438 62.601562 -115.492188 62.09375 -116.953125 C 61.582031 -118.421875 61.328125 -119.738281 61.328125 -120.90625 C 61.328125 -122.21875 61.507812 -124.003906 61.875 -126.265625 C 62.238281 -128.535156 62.710938 -130.984375 63.296875 -133.609375 C 63.878906 -136.234375 64.609375 -138.96875 65.484375 -141.8125 C 66.359375 -144.664062 67.238281 -147.257812 68.125 -149.59375 C 69.875 -149.59375 72.023438 -149.117188 74.578125 -148.171875 C 77.128906 -147.222656 79.71875 -145.984375 82.34375 -144.453125 C 84.976562 -142.921875 87.390625 -141.238281 89.578125 -139.40625 C 91.773438 -137.582031 93.457031 -135.867188 94.625 -134.265625 C 93.019531 -132.660156 90.898438 -130.429688 88.265625 -127.578125 C 85.640625 -124.734375 83.082031 -121.738281 80.59375 -118.59375 C 78.113281 -115.457031 75.851562 -112.503906 73.8125 -109.734375 C 71.769531 -106.960938 70.457031 -104.992188 69.875 -103.828125 C 68.125 -104.117188 66.585938 -104.882812 65.265625 -106.125 C 63.953125 -107.363281 63.296875 -108.566406 63.296875 -109.734375 Z M 63.296875 -109.734375 "/></g></g></g><g fill="#fcffff" fill-opacity="1"><g transform="translate(619.399012, 237.435302)"><g><path d="M 56.734375 -106.234375 C 60.523438 -105.066406 64.097656 -102.472656 67.453125 -98.453125 C 70.816406 -94.441406 73.300781 -90.023438 74.90625 -85.203125 C 73.300781 -81.265625 70.816406 -76.519531 67.453125 -70.96875 C 64.097656 -65.414062 60.738281 -59.753906 57.375 -53.984375 C 54.019531 -48.222656 50.992188 -42.75 48.296875 -37.5625 C 45.597656 -32.375 44.03125 -28.101562 43.59375 -24.75 C 45.925781 -27.226562 48.515625 -30.109375 51.359375 -33.390625 C 54.210938 -36.679688 56.988281 -39.96875 59.6875 -43.25 C 62.382812 -46.539062 64.898438 -49.535156 67.234375 -52.234375 C 69.578125 -54.941406 71.40625 -56.953125 72.71875 -58.265625 C 75.488281 -61.179688 78.769531 -64.570312 82.5625 -68.4375 C 86.363281 -72.3125 90.34375 -75.960938 94.5 -79.390625 C 98.664062 -82.828125 102.863281 -85.75 107.09375 -88.15625 C 111.332031 -90.570312 115.207031 -91.78125 118.71875 -91.78125 C 122.507812 -91.78125 125.679688 -90.5 128.234375 -87.9375 C 130.796875 -85.382812 132.804688 -82.722656 134.265625 -79.953125 C 134.265625 -79.660156 133.71875 -79.253906 132.625 -78.734375 C 131.53125 -78.222656 129.960938 -76.800781 127.921875 -74.46875 C 125.867188 -71.84375 123.566406 -68.226562 121.015625 -63.625 C 118.460938 -59.03125 115.976562 -54.066406 113.5625 -48.734375 C 111.15625 -43.398438 109.148438 -37.957031 107.546875 -32.40625 C 105.941406 -26.863281 105.140625 -21.828125 105.140625 -17.296875 C 105.140625 -13.648438 105.613281 -11.316406 106.5625 -10.296875 C 107.507812 -9.273438 108.859375 -8.765625 110.609375 -8.765625 C 112.210938 -8.765625 113.890625 -9.128906 115.640625 -9.859375 C 117.398438 -10.585938 118.789062 -10.953125 119.8125 -10.953125 C 120.394531 -10.660156 120.867188 -10.039062 121.234375 -9.09375 C 121.597656 -8.144531 121.78125 -7.304688 121.78125 -6.578125 C 120.613281 -5.546875 119.222656 -4.519531 117.609375 -3.5 C 116.003906 -2.476562 114.328125 -1.53125 112.578125 -0.65625 C 110.828125 0.21875 109.113281 0.945312 107.4375 1.53125 C 105.757812 2.113281 104.257812 2.40625 102.9375 2.40625 C 98.707031 2.40625 95.238281 1.785156 92.53125 0.546875 C 89.832031 -0.691406 87.71875 -2.332031 86.1875 -4.375 C 84.65625 -6.425781 83.597656 -8.875 83.015625 -11.71875 C 82.429688 -14.5625 82.140625 -17.59375 82.140625 -20.8125 C 82.140625 -22.5625 82.285156 -24.53125 82.578125 -26.71875 C 82.867188 -28.90625 83.453125 -31.492188 84.328125 -34.484375 C 85.203125 -37.484375 86.441406 -41.0625 88.046875 -45.21875 C 89.648438 -49.382812 91.695312 -54.390625 94.1875 -60.234375 C 93.894531 -60.234375 91.921875 -59.207031 88.265625 -57.15625 C 84.617188 -55.113281 80.675781 -51.976562 76.4375 -47.75 C 69.570312 -41.175781 63.398438 -34.675781 57.921875 -28.25 C 52.453125 -21.832031 46.867188 -14.679688 41.171875 -6.796875 C 37.960938 -2.265625 35.148438 1.566406 32.734375 4.703125 C 30.328125 7.847656 28.25 9.929688 26.5 10.953125 C 23.4375 9.203125 21.171875 6.753906 19.703125 3.609375 C 18.242188 0.472656 17.148438 -2.773438 16.421875 -6.140625 C 16.421875 -8.910156 16.820312 -12.410156 17.625 -16.640625 C 18.4375 -20.878906 19.535156 -25.585938 20.921875 -30.765625 C 22.304688 -35.953125 24.019531 -41.394531 26.0625 -47.09375 C 28.101562 -52.789062 30.367188 -58.484375 32.859375 -64.171875 C 38.398438 -77.023438 43.472656 -87.101562 48.078125 -94.40625 C 52.679688 -101.707031 55.566406 -105.648438 56.734375 -106.234375 Z M 56.734375 -106.234375 "/></g></g></g></g></g><g transform="matrix(1, 0, 0, 1, 147, 360)"><g clip-path="url(#c5fa227f89)"><g fill="#fcffff" fill-opacity="1"><g transform="translate(1.292765, 503.997007)"><g><path d="M 366.203125 -255.421875 C 366.203125 -236.253906 360.945312 -219.175781 350.4375 -204.1875 C 339.9375 -189.195312 325.566406 -176.757812 307.328125 -166.875 C 319.078125 -158.84375 328.425781 -149.03125 335.375 -137.4375 C 342.332031 -125.851562 345.8125 -113.109375 345.8125 -99.203125 C 345.8125 -82.515625 340.785156 -66.054688 330.734375 -49.828125 C 320.691406 -33.609375 307.328125 -19.238281 290.640625 -6.71875 C 273.953125 5.789062 254.945312 15.910156 233.625 23.640625 C 212.300781 31.367188 190.515625 35.234375 168.265625 35.234375 C 144.160156 35.234375 123.066406 30.671875 104.984375 21.546875 C 86.910156 12.429688 72.773438 -0.46875 62.578125 -17.15625 C 65.671875 -26.425781 69.765625 -37.9375 74.859375 -51.6875 C 79.960938 -65.4375 85.601562 -79.957031 91.78125 -95.25 C 97.957031 -110.550781 104.210938 -125.769531 110.546875 -140.90625 C 116.890625 -156.050781 122.84375 -169.648438 128.40625 -181.703125 C 140.144531 -207.972656 150.648438 -229.757812 159.921875 -247.0625 C 169.191406 -264.375 177.691406 -278.128906 185.421875 -288.328125 C 168.421875 -283.078125 152.96875 -277.128906 139.0625 -270.484375 C 125.15625 -263.835938 114.957031 -257.425781 108.46875 -251.25 C 105.6875 -253.101562 102.828125 -255.882812 99.890625 -259.59375 C 96.953125 -263.300781 94.171875 -267.394531 91.546875 -271.875 C 88.921875 -276.351562 86.757812 -280.910156 85.0625 -285.546875 C 83.363281 -290.179688 82.359375 -294.351562 82.046875 -298.0625 C 90.078125 -303.625 100.503906 -308.953125 113.328125 -314.046875 C 126.160156 -319.148438 140.144531 -323.554688 155.28125 -327.265625 C 170.425781 -330.972656 185.957031 -333.90625 201.875 -336.0625 C 217.789062 -338.226562 233.007812 -339.3125 247.53125 -339.3125 C 284.613281 -339.3125 313.660156 -331.894531 334.671875 -317.0625 C 355.691406 -302.226562 366.203125 -281.679688 366.203125 -255.421875 Z M 189.59375 -144.625 C 183.71875 -147.40625 178.304688 -151.578125 173.359375 -157.140625 C 166.253906 -141.378906 159.535156 -125.925781 153.203125 -110.78125 C 146.867188 -95.644531 141.226562 -81.585938 136.28125 -68.609375 C 131.332031 -55.628906 127.3125 -44.347656 124.21875 -34.765625 C 121.132812 -25.179688 119.4375 -18.226562 119.125 -13.90625 C 123.457031 -11.4375 128.632812 -9.582031 134.65625 -8.34375 C 140.6875 -7.101562 148.179688 -6.484375 157.140625 -6.484375 C 178.148438 -6.484375 198.234375 -9.421875 217.390625 -15.296875 C 236.554688 -21.171875 253.398438 -29.128906 267.921875 -39.171875 C 282.453125 -49.210938 294.039062 -60.722656 302.6875 -73.703125 C 311.34375 -86.679688 315.671875 -100.28125 315.671875 -114.5 C 315.671875 -134.894531 306.863281 -149.570312 289.25 -158.53125 C 265.144531 -148.644531 237.953125 -143.703125 207.671875 -143.703125 C 203.335938 -143.703125 200.007812 -143.703125 197.6875 -143.703125 C 195.375 -143.703125 192.675781 -144.007812 189.59375 -144.625 Z M 279.515625 -305.484375 C 273.023438 -305.484375 266.148438 -305.09375 258.890625 -304.3125 C 251.628906 -303.539062 243.984375 -302.382812 235.953125 -300.84375 C 237.179688 -299.601562 238.179688 -298.285156 238.953125 -296.890625 C 239.734375 -295.503906 240.429688 -294.039062 241.046875 -292.5 C 238.265625 -288.789062 234.863281 -283.378906 230.84375 -276.265625 C 226.820312 -269.160156 222.335938 -260.894531 217.390625 -251.46875 C 212.453125 -242.050781 207.28125 -231.625 201.875 -220.1875 C 196.46875 -208.75 190.984375 -197.003906 185.421875 -184.953125 C 190.671875 -186.191406 197.082031 -187.195312 204.65625 -187.96875 C 212.226562 -188.738281 219.722656 -189.125 227.140625 -189.125 C 231.160156 -189.125 235.097656 -188.96875 238.953125 -188.65625 C 242.816406 -188.351562 246.601562 -187.890625 250.3125 -187.265625 C 265.144531 -189.742188 278.507812 -193.375 290.40625 -198.15625 C 302.3125 -202.945312 312.585938 -208.507812 321.234375 -214.84375 C 329.890625 -221.1875 336.535156 -228.21875 341.171875 -235.9375 C 345.804688 -243.664062 348.125 -251.859375 348.125 -260.515625 C 348.125 -275.347656 342.25 -286.550781 330.5 -294.125 C 318.757812 -301.695312 301.765625 -305.484375 279.515625 -305.484375 Z M 279.515625 -305.484375 "/></g></g></g></g></g><g clip-path="url(#23d64fe2df)"><g clip-path="url(#1d99b73127)"><g transform="matrix(1, 0, 0, 1, 1263, 524)"><g clip-path="url(#adf428778c)"><g clip-path="url(#84d6cf6a27)"><g clip-path="url(#25da7dfed5)"><path fill="#000000" d="M 0.6875 0.457031 L 42.9375 0.457031 L 42.9375 36.996094 L 0.6875 36.996094 Z M 0.6875 0.457031 " fill-opacity="1" fill-rule="nonzero"/></g></g></g></g></g></g></svg>